<svg viewBox="0 0 70 75" xmlns="http://www.w3.org/2000/svg">
  <defs>
    <linearGradient id="grad2" x1="0%" y1="0%" x2="100%" y2="0%">
      <stop offset="0%" style="stop-color:#059669;stop-opacity:1" />
      <stop offset="100%" style="stop-color:#047857;stop-opacity:1" />
    </linearGradient>
    <linearGradient id="grad2b" x1="0%" y1="0%" x2="100%" y2="100%">
      <stop offset="0%" style="stop-color:#10b981;stop-opacity:1" />
      <stop offset="100%" style="stop-color:#059669;stop-opacity:1" />
    </linearGradient>
    <linearGradient id="grad2c" x1="0%" y1="100%" x2="100%" y2="0%">
      <stop offset="0%" style="stop-color:#34d399;stop-opacity:1" />
      <stop offset="100%" style="stop-color:#10b981;stop-opacity:1" />
    </linearGradient>
  </defs>
  <polygon points="15,25 35,25 45,40 35,55 15,55 5,40" fill="url(#grad2)"/>
  <polygon points="5,40 15,25 35,25 25,40" fill="url(#grad2b)"/>
  <polygon points="25,40 35,25 45,40" fill="url(#grad2c)"/>
  <polygon points="25,40 45,40 35,55 15,55 5,40" fill="#34d399"/>
  <polygon points="35,25 55,25 65,40 55,55 35,55 25,40" fill="url(#grad2)"/>
  <polygon points="25,40 35,25 55,25 45,40" fill="url(#grad2b)"/>
  <polygon points="45,40 55,25 65,40" fill="url(#grad2c)"/>
  <polygon points="45,40 65,40 55,55 35,55 25,40" fill="#10b981"/>
  <polygon points="25,40 45,40 55,55 45,70 25,70 15,55" fill="url(#grad2)"/>
  <polygon points="15,55 25,40 45,40 35,55" fill="url(#grad2b)"/>
  <polygon points="35,55 45,40 55,55" fill="url(#grad2c)"/>
  <polygon points="35,55 55,55 45,70 25,70 15,55" fill="#059669"/>
</svg>
